HIERARCHY
ROOT hip
{
	OFFSET 0.000000 0.000000 0.000000 
	CHANNELS 6 Xposition Yposition Zposition Xrotation Zrotation Yrotation
	JOINT abdomen
	{
		OFFSET 0.000000 3.402643 0.000000 
		CHANNELS 3 Xrotation Zrotation Yrotation
		JOINT chest
		{
			OFFSET 0.000000 8.438565 -0.680529 
			CHANNELS 3 Xrotation Zrotation Yrotation
			JOINT neck
			{
				OFFSET 0.000000 10.207942 -0.272212 
				CHANNELS 3 Xrotation Zrotation Yrotation
				JOINT head
				{
					OFFSET 0.000000 3.130431 0.000000 
					CHANNELS 3 Xrotation Zrotation Yrotation
					End Site
					{
						OFFSET 0.000000 3.130435 0.000000 
					}
				}
			}
			JOINT lCollar
			{
				OFFSET 3.470700 6.669187 -0.816635 
				CHANNELS 3 Yrotation Zrotation Xrotation
				JOINT lShldr
				{
					OFFSET 3.198488 0.000000 0.000000 
					CHANNELS 3 Zrotation Yrotation Xrotation
					JOINT lForeArm
					{
						OFFSET 10.139888 0.000000 0.000000 
						CHANNELS 3 Yrotation Zrotation Xrotation
						JOINT lHand
						{
							OFFSET 8.370511 0.000000 0.000000 
							CHANNELS 3 Zrotation Yrotation Xrotation
							End Site
							{
								OFFSET 4.083176 0.000000 0.000000 
							}
						}
					}
				}
			}
			JOINT rCollar
			{
				OFFSET -3.470700 6.669187 -0.816635 
				CHANNELS 3 Yrotation Zrotation Xrotation
				JOINT rShldr
				{
					OFFSET -3.198488 0.000000 0.000000 
					CHANNELS 3 Zrotation Yrotation Xrotation
					JOINT rForeArm
					{
						OFFSET -10.139888 0.000000 0.000000 
						CHANNELS 3 Yrotation Zrotation Xrotation
						JOINT rHand
						{
							OFFSET -8.370511 0.000000 0.000000 
							CHANNELS 3 Zrotation Yrotation Xrotation
							End Site
							{
								OFFSET -4.083176 0.000000 0.000000 
							}
						}
					}
				}
			}
		}
	}
	JOINT lThigh
	{
		OFFSET 5.308129 -1.633274 1.361059 
		CHANNELS 3 Xrotation Zrotation Yrotation
		JOINT lShin
		{
			OFFSET -2.041588 -20.007561 0.000000 
			CHANNELS 3 Xrotation Zrotation Yrotation
			JOINT lFoot
			{
				OFFSET 0.000000 -19.190928 -1.224953 
				CHANNELS 3 Xrotation Yrotation Zrotation
				End Site
				{
					OFFSET 0.000000 -2.449906 4.627600 
				}
			}
		}
	}
	JOINT rThigh
	{
		OFFSET -5.308129 -1.633274 1.361059 
		CHANNELS 3 Xrotation Zrotation Yrotation
		JOINT rShin
		{
			OFFSET 2.041588 -20.007561 0.000000 
			CHANNELS 3 Xrotation Zrotation Yrotation
			JOINT rFoot
			{
				OFFSET 0.000000 -19.190928 -1.224953 
				CHANNELS 3 Xrotation Yrotation Zrotation
				End Site
				{
					OFFSET 0.000000 -2.449906 4.627600 
				}
			}
		}
	}
}
MOTION
Frames: 6
Frame Time: 0.033333
-0.045607 53.596806 -6.482860 0.010889 -1.824002 -2.794661 0.000000 0.000000 0.000000 0.301820 2.099527 0.508187 8.278762 3.027296 0.322847 15.341797 0.878906 0.000000 -2.698734 5.665964 1.019225 -31.119282 6.789909 -8.984903 -20.314001 1.018723 12.825041 4.060912 -5.466496 -3.680277 6.368754 0.738857 0.669609 13.072142 -11.399484 7.145113 -0.067707 3.691318 22.473677 -5.633404 6.785922 -3.860402 7.564542 13.072655 9.677311 -0.080546 -2.214711 -1.449804 -3.698084 0.209670 -7.334422 6.246417 -6.559258 -4.294821 -0.536020 4.302701 -8.833796 -2.286802 -0.062995 1.847951 
-0.173725 53.592522 -6.651643 -0.088912 -1.871980 -3.253725 0.000000 0.000000 0.000000 0.860586 2.294828 0.518336 9.047401 3.466768 0.235127 16.542334 1.240234 -0.029290 -3.005374 4.940435 1.546148 -37.209709 8.421534 -7.993072 -25.964561 1.208381 14.035837 1.998463 -5.084715 -3.525082 6.947094 2.465523 1.076659 16.139252 -9.966914 6.168226 -0.091247 3.226496 23.852581 -6.498977 7.631921 -3.970501 7.702378 13.249279 9.867255 -0.226604 -2.252362 -1.225785 -3.506991 0.195868 -7.536450 6.170276 -6.404807 -4.237449 -0.770388 4.410540 -8.405160 -2.176870 -0.061610 1.122006 
-0.315601 53.577652 -6.864998 -0.087332 -1.909812 -3.820791 0.000000 0.000000 0.000000 1.438781 2.617089 0.498865 9.474111 3.652327 0.176668 18.943123 1.425780 -0.087863 -3.238341 4.406908 2.082787 -43.381943 8.522750 -6.652054 -27.851719 1.040388 14.973577 -1.873172 -5.302897 -3.233322 7.401797 3.913202 1.475076 19.896709 -8.382160 4.454482 0.744913 2.745001 22.994640 -6.570005 7.979517 -3.997516 7.712924 13.426484 9.991592 -0.372532 -2.229059 -0.944380 -3.447052 0.178244 -7.542304 5.564207 -6.278140 -4.102824 -0.193717 4.465043 -8.244229 -2.026231 -0.031787 1.343734 
-0.512556 53.548969 -7.119291 0.046011 -2.219838 -4.456585 0.000000 0.000000 0.000000 1.989394 3.036893 0.684703 10.238383 4.150257 0.460608 20.235699 1.552734 0.049075 -3.265752 4.554532 2.592078 -50.010498 7.503113 -5.107056 -27.756632 0.678694 16.147943 -4.616913 -4.653750 -3.063739 8.020160 5.967833 1.797150 23.231110 -11.154786 3.937163 10.604509 2.484887 21.395651 -6.233410 6.659657 -3.903565 7.505994 13.921550 10.227866 -0.235765 -2.078849 -0.515734 -3.554291 0.213919 -8.111037 5.336231 -5.667978 -3.751517 -0.955985 4.608211 -7.848394 -2.077676 -0.036505 -0.519413 
-0.721049 53.536892 -7.404087 0.288322 -2.208586 -4.935495 0.000000 0.000000 0.000000 2.564264 3.359193 0.596968 11.005580 4.120808 0.675595 20.423599 1.796871 0.117436 -3.615881 4.056501 3.136962 -55.807697 6.627933 -3.161297 -27.402225 0.040889 16.648716 -6.914022 -3.368016 -2.991398 8.415971 7.133309 2.188781 27.548414 -13.178123 5.363127 19.968506 2.793459 19.233187 -8.118617 4.446343 -3.954934 7.205411 14.178337 10.413690 -0.498749 -2.217099 -0.224328 -3.276271 0.200197 -7.919699 4.458406 -5.473882 -3.393806 -0.282748 4.547506 -7.432815 -1.893911 -0.016578 -0.090685 
-1.037932 53.523933 -7.669784 0.216369 -2.536969 -5.533148 0.000000 0.000000 0.000000 3.527655 3.788718 0.773670 11.616767 4.364612 0.969938 20.366390 1.562492 0.185744 -3.912737 3.982896 4.034439 -60.953339 5.371334 0.198637 -27.444679 -1.000774 17.333160 -7.904593 0.729730 -3.275318 8.522534 8.048051 2.961565 32.343815 -13.256522 6.695013 25.994793 2.610046 23.998417 -6.006228 2.637464 -3.729071 7.302928 14.822257 10.894605 -0.537327 -2.166689 -0.174408 -3.119720 0.183587 -8.249589 4.032832 -4.746232 -2.945317 -0.146192 4.540143 -7.568329 -1.656919 -0.005231 -0.884247 
